<svg width="203" height="36" viewBox="0 0 203 36" fill="none" xmlns="http://www.w3.org/2000/svg">
<path fill-rule="evenodd" clip-rule="evenodd" d="M13.0819 18.0285C13.4579 18.3492 13.8133 18.6464 14.1429 18.9385C14.3253 19.1002 14.6486 19.191 14.8819 19.1039C15.8061 18.7585 16.6868 18.1637 17.1522 17.1623C17.5612 16.2826 17.1981 16.0418 16.3551 15.8451C15.7299 15.6992 15.0452 15.4709 14.4606 15.1396C11.8693 13.672 5.99731 10.3627 5.99731 10.3627C5.99731 10.3627 4.438 9.46492 3.07291 11.2366C0.802161 15.4419 -0.857147 21.4551 0.476018 25.6349C2.08949 30.6939 7.44273 33.674 13.0745 35.3428C13.7225 35.5349 14.491 35.5256 14.5081 34.6588L14.6242 28.6886C14.64 27.8889 14.034 27.3124 13.2241 27.3279C11.6771 27.358 10.1298 27.3895 8.58272 27.4192C6.82054 27.4527 5.30933 25.9111 6.04103 24.0883C6.91297 21.9153 8.3192 19.2651 8.75456 18.4578C9.43075 17.2046 11.9506 17.0638 13.0816 18.0282L13.0819 18.0285Z" fill="white"/>
<path fill-rule="evenodd" clip-rule="evenodd" d="M13.1298 10.1932C14.0252 8.83538 14.9228 7.47755 15.8191 6.12064C16.8334 4.58447 19.01 4.08073 20.1809 5.84547C21.3009 7.53322 22.4861 9.73681 23.0938 10.901C24.5183 13.6327 21.8346 15.104 19.5188 15.7625C18.9099 15.9357 18.3068 16.3526 18.678 17.0123C19.0839 17.7335 19.7118 18.2604 20.3863 18.6112C20.9852 18.9227 21.6227 18.836 22.1786 18.4389C22.4742 18.2277 22.81 18.0247 23.1924 17.8294C25.7635 16.5171 31.5746 13.533 31.5746 13.533C32.6213 13.0078 32.8848 11.5615 32.2984 10.5838C29.7338 6.30731 23.9358 0 18.7703 0C13.0414 0 10.3585 3.49848 6.8801 6.50185C6.14673 7.13523 6.20558 7.62353 7.01912 8.10276L11.0849 10.4988C11.7583 10.8956 12.6678 10.8931 13.1296 10.1929L13.1298 10.1932Z" fill="white"/>
<path fill-rule="evenodd" clip-rule="evenodd" d="M33.1665 15.3661L28.4182 17.7292C27.7568 18.0586 27.4869 18.4275 27.7936 19.1435L29.8539 23.9639C30.4944 25.4621 29.5403 27.4139 27.6577 27.4188C25.5142 27.4241 22.8306 27.1649 21.6938 27.0432C19.9923 26.862 18.8757 24.7369 19.4005 23.1629C19.7132 22.2258 19.9353 21.3837 20.3231 20.666C20.5074 20.3252 20.5102 20.0603 20.2023 19.8015C18.9641 18.7606 17.5482 18.6279 15.8468 19.7979C15.532 20.0142 15.5169 20.3698 15.7104 20.6744C16.1828 21.4179 16.4967 22.3096 16.6051 23.5428C16.8578 26.418 16.76 34.1456 16.76 34.1456C16.76 34.1456 16.9009 35.8839 19.0659 36.0001C31.7498 35.2759 37.2567 26.8237 34.3928 16.0625C34.2411 15.4922 33.7566 15.0721 33.1666 15.3658L33.1665 15.3661Z" fill="white"/>
<path d="M182.98 29.6013C182.591 29.6013 182.364 29.1624 182.588 28.8445L188.241 20.8366C188.358 20.6706 188.358 20.4489 188.241 20.2829L182.821 12.6075C182.597 12.2895 182.824 11.8506 183.213 11.8506H186.651C186.811 11.8506 186.961 11.9304 187.05 12.0633L190.56 17.3007C190.752 17.5857 191.171 17.5841 191.36 17.2977L194.809 12.0664C194.898 11.9317 195.049 11.8506 195.21 11.8506H198.717C199.105 11.8506 199.333 12.2876 199.11 12.6057L193.715 20.3168C193.599 20.4825 193.6 20.7031 193.716 20.8685L199.338 28.8448C199.562 29.1627 199.335 29.6013 198.946 29.6013H195.509C195.347 29.6013 195.197 29.5205 195.108 29.3861L191.428 23.8219C191.238 23.5356 190.818 23.5348 190.628 23.8204L186.917 29.3875C186.828 29.5211 186.678 29.6013 186.517 29.6013H182.98Z" fill="white"/>
<path d="M170.586 29.9996C168.725 29.9996 167.229 29.5786 166.099 28.7365C164.969 27.8722 164.404 26.6755 164.404 25.1465C164.404 23.6174 164.88 22.4207 165.833 21.5564C166.786 20.6922 168.237 20.0717 170.188 19.6949L175.684 18.608C175.909 18.5635 176.073 18.366 176.061 18.1371C176.006 17.0705 175.722 16.2601 175.207 15.706C174.631 15.0634 173.778 14.742 172.647 14.742C171.628 14.742 170.819 14.9858 170.221 15.4733C169.729 15.8703 169.367 16.4204 169.133 17.1236C169.061 17.3405 168.86 17.4935 168.632 17.4829L165.255 17.3271C164.963 17.3136 164.75 17.0449 164.821 16.7621C165.231 15.1407 166.056 13.88 167.296 12.9803C168.67 11.9609 170.454 11.4512 172.647 11.4512C175.174 11.4512 177.08 12.0938 178.365 13.3791C179.672 14.6423 180.326 16.4595 180.326 18.8307V25.2794C180.326 25.7448 180.404 26.0661 180.559 26.2434C180.736 26.4207 180.991 26.5093 181.323 26.5093H181.408C181.674 26.5093 181.888 26.7242 181.888 26.9893V29.2548C181.888 29.4614 181.755 29.6427 181.55 29.669C181.455 29.6812 181.346 29.6917 181.224 29.7005C180.936 29.7226 180.636 29.7337 180.326 29.7337C179.595 29.7337 178.941 29.6229 178.365 29.4013C177.789 29.1575 177.345 28.7476 177.035 28.1714C176.76 27.6409 176.607 26.9448 176.576 26.0833C176.571 25.9425 176.73 25.861 176.844 25.9438C176.899 25.9844 176.926 26.0544 176.909 26.1213C176.721 26.8528 176.342 27.514 175.772 28.1049C175.196 28.7032 174.465 29.1686 173.578 29.501C172.692 29.8334 171.695 29.9996 170.586 29.9996ZM171.451 26.9082C172.404 26.9082 173.224 26.7199 173.911 26.3431C174.598 25.9664 175.129 25.4456 175.506 24.7808C175.883 24.116 176.071 23.3293 176.071 22.4207V22.0106C176.071 21.7072 175.793 21.4799 175.496 21.5402L171.484 22.3542C170.531 22.5537 169.844 22.8528 169.423 23.2517C169.024 23.6285 168.825 24.1271 168.825 24.7476C168.825 25.4346 169.046 25.9664 169.49 26.3431C169.955 26.7199 170.609 26.9082 171.451 26.9082Z" fill="white"/>
<path d="M137.589 29.6008C137.324 29.6008 137.109 29.3859 137.109 29.1208V12.3301C137.109 12.065 137.324 11.8501 137.589 11.8501H140.5C140.759 11.8501 140.971 12.0561 140.979 12.3154L141.089 15.8994C141.093 16.0373 140.948 16.1298 140.825 16.0681C140.751 16.031 140.711 15.9485 140.729 15.8678C140.932 14.9743 141.266 14.2112 141.73 13.5786C142.239 12.8916 142.849 12.3708 143.558 12.0163C144.289 11.6395 145.087 11.4512 145.951 11.4512C147.458 11.4512 148.677 11.8833 149.608 12.7476C150.48 13.5371 151.051 14.6091 151.32 15.9636C151.348 16.1068 151.237 16.2379 151.091 16.2379C150.942 16.2379 150.83 16.1025 150.863 15.9575C151.068 15.0402 151.392 14.2694 151.835 13.6451C152.323 12.9359 152.932 12.393 153.663 12.0163C154.417 11.6395 155.259 11.4512 156.19 11.4512C157.408 11.4512 158.461 11.7171 159.347 12.249C160.234 12.7587 160.91 13.5121 161.375 14.5093C161.863 15.5066 162.106 16.7365 162.106 18.1991V29.1208C162.106 29.3859 161.892 29.6008 161.626 29.6008H158.332C158.067 29.6008 157.852 29.3859 157.852 29.1208V19.296C157.852 17.8334 157.597 16.7365 157.087 16.0052C156.6 15.2739 155.846 14.9082 154.827 14.9082C154.14 14.9082 153.552 15.0855 153.065 15.4401C152.577 15.7947 152.201 16.3154 151.935 17.0024C151.691 17.6672 151.569 18.4761 151.569 19.429V29.1208C151.569 29.3859 151.354 29.6008 151.089 29.6008H148.093C147.828 29.6008 147.613 29.3859 147.613 29.1208V19.429C147.613 17.9664 147.392 16.8473 146.949 16.0717C146.505 15.296 145.741 14.9082 144.655 14.9082C143.968 14.9082 143.381 15.0855 142.893 15.4401C142.428 15.7947 142.051 16.3154 141.763 17.0024C141.497 17.6672 141.364 18.4761 141.364 19.429V29.1208C141.364 29.3859 141.149 29.6008 140.884 29.6008H137.589Z" fill="white"/>
<path d="M130.798 29.6011C129.025 29.6011 127.718 29.1912 126.876 28.3712C126.056 27.5513 125.646 26.266 125.646 24.5153V8.17531C125.646 7.91022 125.861 7.69531 126.126 7.69531H129.421C129.686 7.69531 129.901 7.91022 129.901 8.17531V24.1164C129.901 24.9363 130.078 25.5125 130.432 25.8449C130.787 26.1551 131.341 26.3103 132.094 26.3103H134.108C134.373 26.3103 134.588 26.5252 134.588 26.7903V29.1211C134.588 29.3862 134.373 29.6011 134.108 29.6011H130.798ZM123.333 15.1413C123.068 15.1413 122.853 14.9264 122.853 14.6613V12.3304C122.853 12.0653 123.068 11.8504 123.333 11.8504H134.108C134.373 11.8504 134.588 12.0653 134.588 12.3304V14.6613C134.588 14.9264 134.373 15.1413 134.108 15.1413H123.333Z" fill="white"/>
<path d="M117.828 29.6011C116.055 29.6011 114.747 29.1912 113.905 28.3712C113.085 27.5513 112.675 26.266 112.675 24.5153V8.17531C112.675 7.91022 112.89 7.69531 113.155 7.69531H116.45C116.715 7.69531 116.93 7.91022 116.93 8.17531V24.1164C116.93 24.9363 117.107 25.5125 117.462 25.8449C117.817 26.1551 118.371 26.3103 119.124 26.3103H121.137C121.402 26.3103 121.617 26.5252 121.617 26.7903V29.1211C121.617 29.3862 121.402 29.6011 121.137 29.6011H117.828ZM110.363 15.1413C110.098 15.1413 109.883 14.9264 109.883 14.6613V12.3304C109.883 12.0653 110.098 11.8504 110.363 11.8504H121.137C121.402 11.8504 121.617 12.0653 121.617 12.3304V14.6613C121.617 14.9264 121.402 15.1413 121.137 15.1413H110.363Z" fill="white"/>
<path d="M100.618 29.9996C98.8453 29.9996 97.3051 29.6229 95.9977 28.8695C94.6902 28.0938 93.6819 27.008 92.9727 25.6118C92.2636 24.2157 91.909 22.5869 91.909 20.7254C91.909 18.8639 92.2636 17.2462 92.9727 15.8722C93.6819 14.4761 94.6791 13.3902 95.9644 12.6146C97.2719 11.839 98.7899 11.4512 100.518 11.4512C102.203 11.4512 103.676 11.8279 104.94 12.5814C106.225 13.3348 107.211 14.4207 107.898 15.839C108.585 17.2573 108.928 18.9636 108.928 20.9581V21.4421C108.928 21.7072 108.714 21.9221 108.448 21.9221H96.8383C96.5624 21.9221 96.3419 22.1546 96.3723 22.4287C96.5171 23.7315 96.9241 24.7371 97.5932 25.4456C98.3689 26.2213 99.3883 26.6091 100.651 26.6091C101.604 26.6091 102.391 26.3985 103.012 25.9775C103.554 25.6037 103.954 25.1117 104.212 24.5015C104.298 24.2984 104.496 24.1587 104.716 24.1721L108.101 24.3789C108.407 24.3975 108.618 24.6943 108.514 24.9822C107.986 26.4444 107.083 27.6183 105.804 28.5038C104.385 29.501 102.657 29.9996 100.618 29.9996ZM96.4171 18.5243C96.3614 18.8084 96.5865 19.0634 96.876 19.0634H104.03C104.307 19.0634 104.528 18.8296 104.494 18.555C104.348 17.37 103.953 16.4757 103.311 15.8722C102.579 15.1631 101.649 14.8085 100.518 14.8085C99.3883 14.8085 98.4464 15.1742 97.693 15.9055C97.0604 16.538 96.6351 17.411 96.4171 18.5243Z" fill="white"/>
<path d="M88.509 29.6011C87.2236 29.6011 86.1932 29.2687 85.4176 28.6039C84.6419 27.9391 84.2541 26.8753 84.2541 25.4127V6.48C84.2541 6.2149 84.469 6 84.7341 6H88.029C88.2941 6 88.509 6.2149 88.509 6.48V24.9806C88.509 25.4238 88.6198 25.7562 88.8414 25.9778C89.0851 26.1994 89.4176 26.3102 89.8386 26.3102H90.655C90.9201 26.3102 91.135 26.5252 91.135 26.7903V29.1211C91.135 29.3862 90.9201 29.6011 90.655 29.6011H88.509Z" fill="white"/>
<path d="M74.2341 30C72.9931 30 71.9072 29.7341 70.9765 29.2022C70.5815 28.971 70.2243 28.7001 69.9047 28.3893C69.5536 28.0479 68.8004 28.2563 68.7818 28.7456L68.7669 29.1393C68.7571 29.3971 68.5452 29.6011 68.2872 29.6011H65.1739C64.9088 29.6011 64.6939 29.3862 64.6939 29.1211V6.48C64.6939 6.2149 64.9088 6 65.1739 6H68.4688C68.7339 6 68.9488 6.2149 68.9488 6.48V12.6303C68.9488 13.1181 69.6958 13.3629 70.0602 13.0386C70.3546 12.7767 70.6822 12.5358 71.043 12.3158C71.9515 11.7396 73.0153 11.4515 74.2341 11.4515C75.7632 11.4515 77.0817 11.8393 78.1898 12.615C79.32 13.3684 80.1842 14.4432 80.7826 15.8393C81.4031 17.2133 81.7133 18.8421 81.7133 20.7258C81.7133 22.6094 81.4031 24.2493 80.7826 25.6454C80.1842 27.0194 79.32 28.0942 78.1898 28.8698C77.0817 29.6233 75.7632 30 74.2341 30ZM73.2701 26.5429C74.4889 26.5429 75.464 26.0332 76.1953 25.0138C76.9266 23.9723 77.2923 22.5429 77.2923 20.7258C77.2923 18.8864 76.9266 17.4571 76.1953 16.4377C75.4862 15.4183 74.5222 14.9086 73.3033 14.9086C72.3948 14.9086 71.6081 15.1413 70.9432 15.6066C70.3006 16.0499 69.802 16.7036 69.4474 17.5679C69.115 18.4321 68.9488 19.4848 68.9488 20.7258C68.9488 21.9224 69.115 22.964 69.4474 23.8504C69.802 24.7147 70.3006 25.3795 70.9432 25.8449C71.5859 26.3102 72.3615 26.5429 73.2701 26.5429Z" fill="white"/>
<path d="M41.8171 29.6011C41.4845 29.6011 41.2527 29.2711 41.3655 28.9583L49.5291 6.31719C49.5977 6.12686 49.7783 6 49.9806 6H54.5916C54.7939 6 54.9745 6.12686 55.0431 6.31719L63.2067 28.9583C63.3195 29.2711 63.0877 29.6011 62.7551 29.6011H59.2579C59.0541 29.6011 58.8725 29.4724 58.805 29.2802L57.0692 24.3376C57.0017 24.1453 56.8201 24.0166 56.6163 24.0166H47.9559C47.7521 24.0166 47.5706 24.1453 47.503 24.3376L45.7672 29.2802C45.6997 29.4724 45.5181 29.6011 45.3144 29.6011H41.8171ZM49.0972 19.691C48.9902 20.0026 49.2218 20.3269 49.5512 20.3269H55.0231C55.352 20.3269 55.5834 20.0037 55.4776 19.6924L52.755 11.6847C52.6076 11.2514 51.9951 11.2505 51.8465 11.6833L49.0972 19.691Z" fill="white"/>
</svg>
