<svg width="900" height="111" viewBox="0 0 900 111" fill="none" xmlns="http://www.w3.org/2000/svg">
<g opacity="0.05">
<path fill-rule="evenodd" clip-rule="evenodd" d="M58.0354 80.1076C59.7037 81.5303 61.2801 82.849 62.7424 84.1449C63.5518 84.8623 64.9859 85.2649 66.0207 84.8784C70.1211 83.3462 74.0282 80.7075 76.0925 76.2649C77.9071 72.3625 76.2965 71.2941 72.5565 70.4217C69.7829 69.7741 66.7455 68.7614 64.1517 67.2917C52.6559 60.7808 26.6061 46.0999 26.6061 46.0999C26.6061 46.0999 19.6885 42.117 13.6326 49.9768C3.55879 68.6325 -3.80242 95.3091 2.11192 113.852C9.26979 136.295 33.0184 149.516 58.0025 156.919C60.8775 157.772 64.2866 157.73 64.3625 153.885L64.8779 127.399C64.9476 123.851 62.2593 121.294 58.6662 121.363C51.8036 121.497 44.939 121.636 38.0758 121.768C30.2582 121.917 23.554 115.078 26.8001 106.991C30.6682 97.3506 36.9067 85.5937 38.8381 82.0121C41.8379 76.4528 53.017 75.828 58.0341 80.1062L58.0354 80.1076Z" fill="white"/>
<path fill-rule="evenodd" clip-rule="evenodd" d="M58.2477 45.3477C62.2199 39.324 66.2022 33.3002 70.1784 27.2805C74.6781 20.4656 84.3344 18.2308 89.5287 26.0598C94.4975 33.5472 99.7555 43.323 102.451 48.4877C108.771 60.6063 96.8651 67.1334 86.5913 70.0546C83.8902 70.823 81.2145 72.6726 82.8614 75.5992C84.6619 78.799 87.4476 81.1364 90.44 82.6926C93.0969 84.0744 95.9249 83.6899 98.3912 81.9283C99.7025 80.9914 101.192 80.0908 102.889 79.2244C114.295 73.4027 140.075 60.1641 140.075 60.1641C144.718 57.834 145.887 51.4177 143.286 47.0804C131.908 28.1086 106.187 0.127441 83.2708 0.127441C57.8558 0.127441 45.9533 15.6478 30.5222 28.9717C27.2688 31.7815 27.5298 33.9478 31.1389 36.0738L49.1759 46.7033C52.1636 48.4636 56.1982 48.4528 58.2471 45.3463L58.2477 45.3477Z" fill="white"/>
<path fill-rule="evenodd" clip-rule="evenodd" d="M147.137 68.2954L126.072 78.7792C123.138 80.2402 121.941 81.877 123.301 85.0532L132.441 106.438C135.283 113.085 131.05 121.743 122.699 121.765C113.189 121.789 101.284 120.639 96.2407 120.099C88.6922 119.295 83.7389 109.868 86.0669 102.885C87.4541 98.7274 88.4392 94.9915 90.1599 91.8078C90.9773 90.2958 90.99 89.1207 89.6237 87.9725C84.1308 83.3547 77.8494 82.7662 70.3016 87.9564C68.9051 88.9161 68.838 90.4938 69.6963 91.8447C71.7921 95.1431 73.1846 99.0992 73.6658 104.57C74.7865 117.325 74.353 151.608 74.353 151.608C74.353 151.608 74.9778 159.319 84.5825 159.834C140.852 156.622 165.283 119.125 152.578 71.3851C151.904 68.8551 149.755 66.9915 147.138 68.294L147.137 68.2954Z" fill="white"/>
<path d="M811.758 131.446C810.031 131.446 809.022 129.5 810.018 128.089L835.095 92.5634C835.615 91.8271 835.615 90.8434 835.095 90.1071L811.051 56.0564C810.055 54.6459 811.064 52.6987 812.791 52.6987H828.042C828.752 52.6987 829.416 53.0527 829.811 53.6425L845.386 76.8773C846.233 78.1414 848.095 78.1343 848.933 76.8637L864.234 53.656C864.628 53.0584 865.296 52.6987 866.012 52.6987H881.57C883.292 52.6987 884.302 54.6375 883.315 56.0489L859.382 90.2575C858.867 90.9927 858.869 91.9715 859.386 92.7049L884.325 128.09C885.32 129.501 884.311 131.446 882.585 131.446H867.337C866.623 131.446 865.956 131.088 865.561 130.492L849.234 105.807C848.393 104.537 846.53 104.534 845.686 105.801L829.221 130.498C828.826 131.091 828.161 131.446 827.449 131.446H811.758Z" fill="white"/>
<path d="M756.775 133.217C748.517 133.217 741.881 131.349 736.867 127.613C731.853 123.779 729.346 118.47 729.346 111.687C729.346 104.903 731.46 99.5944 735.688 95.7603C739.915 91.9261 746.354 89.1734 755.006 87.5021L779.391 82.6801C780.389 82.4829 781.116 81.6064 781.064 80.5909C780.819 75.8592 779.556 72.2642 777.273 69.806C774.717 66.955 770.932 65.5295 765.918 65.5295C761.396 65.5295 757.808 66.6109 755.153 68.7737C752.973 70.5347 751.365 72.9751 750.329 76.0949C750.01 77.0571 749.116 77.7356 748.103 77.6889L733.121 76.9974C731.829 76.9378 730.882 75.7458 731.2 74.4911C733.018 67.2979 736.676 61.7054 742.176 57.7137C748.271 53.1913 756.186 50.9302 765.918 50.9302C777.126 50.9302 785.581 53.7812 791.283 59.4833C797.083 65.0871 799.983 73.1486 799.983 83.668V112.277C799.983 114.341 800.327 115.767 801.016 116.553C801.802 117.34 802.933 117.733 804.407 117.733H804.785C805.961 117.733 806.914 118.686 806.914 119.862V129.913C806.914 130.829 806.321 131.633 805.412 131.75C804.991 131.804 804.509 131.851 803.965 131.89C802.687 131.988 801.36 132.037 799.983 132.037C796.739 132.037 793.839 131.546 791.283 130.563C788.727 129.481 786.76 127.662 785.384 125.106C784.164 122.753 783.484 119.665 783.346 115.843C783.323 115.218 784.028 114.857 784.534 115.224C784.781 115.404 784.899 115.715 784.823 116.011C783.989 119.257 782.308 122.19 779.78 124.811C777.224 127.466 773.98 129.53 770.047 131.005C766.115 132.48 761.691 133.217 756.775 133.217ZM760.61 119.503C764.837 119.503 768.474 118.667 771.522 116.996C774.57 115.324 776.929 113.014 778.601 110.065C780.272 107.115 781.107 103.625 781.107 99.5944V97.7753C781.107 96.4291 779.874 95.4207 778.555 95.6884L760.757 99.2995C756.53 100.184 753.482 101.512 751.614 103.281C749.844 104.952 748.96 107.164 748.96 109.917C748.96 112.965 749.943 115.324 751.909 116.996C753.974 118.667 756.874 119.503 760.61 119.503Z" fill="white"/>
<path d="M610.389 131.447C609.213 131.447 608.26 130.494 608.26 129.318V54.8292C608.26 53.6532 609.213 52.6998 610.389 52.6998H623.3C624.451 52.6998 625.394 53.614 625.429 54.7642L625.914 70.6638C625.933 71.2758 625.291 71.6859 624.744 71.4121C624.415 71.2478 624.238 70.8819 624.319 70.5236C625.22 66.5598 626.699 63.1746 628.758 60.3681C631.019 57.3204 633.722 55.0101 636.868 53.4371C640.112 51.7658 643.652 50.9302 647.486 50.9302C654.171 50.9302 659.578 52.8473 663.707 56.6814C667.579 60.1841 670.11 64.9398 671.303 70.9487C671.429 71.5842 670.934 72.1655 670.286 72.1655C669.627 72.1655 669.13 71.5648 669.274 70.9215C670.184 66.8524 671.622 63.4329 673.588 60.663C675.75 57.5171 678.454 55.1084 681.698 53.4371C685.041 51.7658 688.777 50.9302 692.906 50.9302C698.313 50.9302 702.983 52.1099 706.915 54.4694C710.848 56.7306 713.846 60.0732 715.911 64.4972C718.074 68.9212 719.155 74.3775 719.155 80.8661V129.318C719.155 130.494 718.202 131.447 717.026 131.447H702.409C701.233 131.447 700.279 130.494 700.279 129.318V85.7325C700.279 79.2439 699.149 74.3775 696.888 71.1332C694.725 67.8889 691.382 66.2668 686.86 66.2668C683.812 66.2668 681.207 67.0533 679.044 68.6263C676.881 70.1993 675.21 72.5096 674.03 75.5572C672.949 78.5066 672.408 82.095 672.408 86.3224V129.318C672.408 130.494 671.455 131.447 670.278 131.447H656.989C655.813 131.447 654.859 130.494 654.859 129.318V86.3224C654.859 79.8338 653.876 74.8691 651.91 71.4282C649.944 67.9872 646.552 66.2668 641.735 66.2668C638.687 66.2668 636.082 67.0533 633.919 68.6263C631.854 70.1993 630.183 72.5096 628.905 75.5572C627.725 78.5066 627.135 82.095 627.135 86.3224V129.318C627.135 130.494 626.182 131.447 625.006 131.447H610.389Z" fill="white"/>
<path d="M580.262 131.447C572.397 131.447 566.597 129.628 562.861 125.991C559.223 122.353 557.404 116.651 557.404 108.885V36.3955C557.404 35.2195 558.358 34.2661 559.534 34.2661H574.151C575.327 34.2661 576.28 35.2195 576.28 36.3955V107.115C576.28 110.753 577.067 113.309 578.64 114.783C580.213 116.16 582.67 116.848 586.013 116.848H594.944C596.12 116.848 597.073 117.801 597.073 118.977V129.318C597.073 130.494 596.12 131.447 594.944 131.447H580.262ZM547.147 67.2988C545.97 67.2988 545.017 66.3455 545.017 65.1694V54.829C545.017 53.6529 545.97 52.6995 547.147 52.6995H594.944C596.12 52.6995 597.073 53.6529 597.073 54.829V65.1694C597.073 66.3455 596.12 67.2988 594.944 67.2988H547.147Z" fill="white"/>
<path d="M522.721 131.447C514.856 131.447 509.056 129.628 505.32 125.991C501.682 122.353 499.863 116.651 499.863 108.885V36.3955C499.863 35.2195 500.817 34.2661 501.993 34.2661H516.61C517.786 34.2661 518.739 35.2195 518.739 36.3955V107.115C518.739 110.753 519.526 113.309 521.099 114.783C522.672 116.16 525.13 116.848 528.472 116.848H537.403C538.579 116.848 539.532 117.801 539.532 118.977V129.318C539.532 130.494 538.579 131.447 537.403 131.447H522.721ZM489.606 67.2988C488.43 67.2988 487.476 66.3455 487.476 65.1694V54.829C487.476 53.6529 488.43 52.6995 489.606 52.6995H537.403C538.579 52.6995 539.532 53.6529 539.532 54.829V65.1694C539.532 66.3455 538.579 67.2988 537.403 67.2988H489.606Z" fill="white"/>
<path d="M446.374 133.217C438.509 133.217 431.677 131.546 425.876 128.203C420.076 124.762 415.603 119.945 412.457 113.751C409.311 107.558 407.738 100.332 407.738 92.0736C407.738 83.8154 409.311 76.6387 412.457 70.5434C415.603 64.3497 420.027 59.5324 425.729 56.0915C431.529 52.6506 438.264 50.9302 445.932 50.9302C453.404 50.9302 459.941 52.6015 465.545 55.9441C471.247 59.2867 475.622 64.1039 478.67 70.3959C481.717 76.6878 483.241 84.2578 483.241 93.1059V95.253C483.241 96.4291 482.288 97.3824 481.112 97.3824H429.606C428.382 97.3824 427.403 98.4137 427.538 99.63C428.181 105.41 429.986 109.871 432.955 113.014C436.396 116.455 440.918 118.175 446.522 118.175C450.749 118.175 454.239 117.241 456.992 115.373C459.396 113.715 461.172 111.533 462.317 108.825C462.699 107.925 463.576 107.305 464.553 107.364L479.572 108.281C480.928 108.364 481.864 109.681 481.403 110.958C479.062 117.445 475.054 122.652 469.379 126.581C463.087 131.005 455.419 133.217 446.374 133.217ZM427.737 82.309C427.49 83.5693 428.489 84.7002 429.773 84.7002H461.511C462.738 84.7002 463.72 83.6633 463.569 82.4451C462.919 77.188 461.169 73.2207 458.319 70.5434C455.075 67.3974 450.946 65.8244 445.932 65.8244C440.918 65.8244 436.74 67.4465 433.397 70.6908C430.591 73.497 428.704 77.3697 427.737 82.309Z" fill="white"/>
<path d="M392.654 131.447C386.952 131.447 382.381 129.972 378.94 127.023C375.499 124.073 373.778 119.354 373.778 112.866V28.8741C373.778 27.698 374.732 26.7446 375.908 26.7446H390.525C391.701 26.7446 392.654 27.698 392.654 28.8741V110.949C392.654 112.915 393.146 114.389 394.129 115.373C395.21 116.356 396.685 116.847 398.553 116.847H402.175C403.351 116.847 404.304 117.801 404.304 118.977V129.317C404.304 130.493 403.351 131.447 402.175 131.447H392.654Z" fill="white"/>
<path d="M329.326 133.216C323.821 133.216 319.003 132.036 314.874 129.677C313.122 128.651 311.537 127.449 310.119 126.071C308.562 124.556 305.22 125.48 305.138 127.651L305.072 129.398C305.028 130.542 304.088 131.447 302.944 131.447H289.132C287.956 131.447 287.003 130.493 287.003 129.317V28.8741C287.003 27.698 287.956 26.7446 289.132 26.7446H303.749C304.925 26.7446 305.879 27.698 305.879 28.8741V56.1586C305.879 58.3227 309.193 59.4086 310.809 57.9701C312.115 56.8082 313.569 55.7393 315.169 54.7635C319.2 52.2074 323.919 50.9293 329.326 50.9293C336.109 50.9293 341.959 52.6498 346.875 56.0907C351.888 59.4333 355.723 64.2014 358.377 70.395C361.13 76.4903 362.506 83.7162 362.506 92.0727C362.506 100.429 361.13 107.704 358.377 113.898C355.723 119.993 351.888 124.761 346.875 128.202C341.959 131.545 336.109 133.216 329.326 133.216ZM325.049 117.88C330.457 117.88 334.782 115.618 338.027 111.096C341.271 106.475 342.893 100.134 342.893 92.0727C342.893 83.9129 341.271 77.5718 338.027 73.0494C334.881 68.5271 330.604 66.2659 325.197 66.2659C321.166 66.2659 317.676 67.2982 314.727 69.3627C311.876 71.329 309.664 74.2292 308.091 78.0633C306.616 81.8975 305.879 86.5673 305.879 92.0727C305.879 97.3816 306.616 102.002 308.091 105.935C309.664 109.769 311.876 112.718 314.727 114.783C317.578 116.847 321.019 117.88 325.049 117.88Z" fill="white"/>
<path d="M185.514 131.447C184.039 131.447 183.01 129.983 183.511 128.595L219.727 28.1518C220.031 27.3074 220.832 26.7446 221.73 26.7446H242.186C243.083 26.7446 243.884 27.3074 244.189 28.1518L280.405 128.595C280.905 129.983 279.877 131.447 278.402 131.447H262.887C261.983 131.447 261.177 130.876 260.878 130.023L253.177 108.096C252.878 107.243 252.072 106.672 251.168 106.672H212.748C211.844 106.672 211.038 107.243 210.739 108.096L203.038 130.023C202.739 130.876 201.933 131.447 201.029 131.447H185.514ZM217.811 87.4822C217.336 88.8645 218.364 90.3031 219.825 90.3031H244.1C245.559 90.3031 246.586 88.8694 246.116 87.4882L234.038 51.9636C233.384 50.0414 230.667 50.0373 230.008 51.9576L217.811 87.4822Z" fill="white"/>
</g>
</svg>
