<svg width="136" height="25" viewBox="0 0 136 25" fill="none" xmlns="http://www.w3.org/2000/svg">
<path fill-rule="evenodd" clip-rule="evenodd" d="M8.72124 12.519C8.97195 12.7328 9.20884 12.9309 9.42859 13.1257C9.55022 13.2335 9.76573 13.294 9.92124 13.2359C10.5374 13.0057 11.1246 12.6091 11.4348 11.9415C11.7075 11.3551 11.4654 11.1945 10.9034 11.0634C10.4866 10.9661 10.0302 10.8139 9.64038 10.5931C7.91284 9.61464 3.99821 7.40848 3.99821 7.40848C3.99821 7.40848 2.95866 6.80995 2.04861 7.99108C0.534774 10.7946 -0.571432 14.8034 0.317345 17.5899C1.39299 20.9626 4.96182 22.9493 8.7163 24.0619C9.14834 24.19 9.66065 24.1837 9.67204 23.6058L9.74949 19.6258C9.75998 19.0926 9.35598 18.7082 8.81604 18.7186C7.78476 18.7387 6.75319 18.7597 5.72181 18.7794C4.54703 18.8018 3.53955 17.7741 4.02735 16.5589C4.60864 15.1102 5.54613 13.3434 5.83637 12.8052C6.28717 11.9698 7.9671 11.8759 8.72104 12.5188L8.72124 12.519Z" fill="#0F9F4B"/>
<path fill-rule="evenodd" clip-rule="evenodd" d="M8.75319 7.29547C9.35011 6.39025 9.94854 5.48504 10.5461 4.58043C11.2223 3.55631 12.6734 3.22049 13.4539 4.39698C14.2006 5.52215 14.9908 6.99121 15.3959 7.76734C16.3456 9.58846 14.5564 10.5693 13.0125 11.0083C12.6066 11.1238 12.2045 11.4017 12.452 11.8415C12.7226 12.3224 13.1412 12.6736 13.5909 12.9075C13.9901 13.1151 14.4151 13.0573 14.7857 12.7926C14.9828 12.6518 15.2067 12.5165 15.4616 12.3863C17.1756 11.5114 21.0497 9.522 21.0497 9.522C21.7475 9.17185 21.9232 8.20764 21.5323 7.55586C19.8225 4.70487 15.9572 0.5 12.5135 0.5C8.69429 0.5 6.90564 2.83232 4.58674 4.83456C4.09782 5.25682 4.13705 5.58236 4.67942 5.90184L7.38992 7.49918C7.83889 7.76371 8.4452 7.76209 8.75309 7.29527L8.75319 7.29547Z" fill="#0F9F4B"/>
<path fill-rule="evenodd" clip-rule="evenodd" d="M22.111 10.744L18.9454 12.3194C18.5045 12.539 18.3246 12.7849 18.529 13.2622L19.9026 16.4759C20.3296 17.4747 19.6935 18.7758 18.4385 18.7791C17.0095 18.7827 15.2204 18.6098 14.4625 18.5287C13.3282 18.4079 12.5838 16.9912 12.9337 15.9419C13.1421 15.3171 13.2902 14.7557 13.5487 14.2773C13.6716 14.0501 13.6735 13.8735 13.4682 13.7009C12.6427 13.007 11.6988 12.9185 10.5645 13.6985C10.3547 13.8427 10.3446 14.0798 10.4736 14.2828C10.7885 14.7785 10.9978 15.373 11.0701 16.1951C11.2385 18.1119 11.1734 23.2637 11.1734 23.2637C11.1734 23.2637 11.2673 24.4225 12.7106 24.5C21.1665 24.0172 24.8378 18.3824 22.9286 11.2083C22.8274 10.8281 22.5044 10.548 22.1111 10.7437L22.111 10.744Z" fill="#0F9F4B"/>
<path d="M121.987 20.234C121.727 20.234 121.576 19.9415 121.725 19.7295L125.494 14.3909C125.572 14.2802 125.572 14.1324 125.494 14.0218L121.881 8.90481C121.731 8.69284 121.883 8.40023 122.142 8.40023H124.434C124.541 8.40023 124.64 8.45342 124.7 8.54205L127.04 12.0337C127.168 12.2236 127.447 12.2226 127.573 12.0316L129.873 8.54408C129.932 8.45428 130.032 8.40023 130.14 8.40023H132.478C132.737 8.40023 132.888 8.69158 132.74 8.90367L129.144 14.0444C129.066 14.1549 129.066 14.3019 129.144 14.4122L132.892 19.7297C133.041 19.9417 132.89 20.234 132.63 20.234H130.339C130.232 20.234 130.131 20.1801 130.072 20.0906L127.619 16.3811C127.492 16.1902 127.212 16.1897 127.085 16.3801L124.611 20.0915C124.552 20.1806 124.452 20.234 124.345 20.234H121.987Z" fill="#0F9F4B"/>
<path d="M113.724 20.5C112.483 20.5 111.486 20.2193 110.733 19.6579C109.979 19.0817 109.602 18.2839 109.602 17.2646C109.602 16.2452 109.92 15.4474 110.555 14.8712C111.191 14.295 112.158 13.8814 113.458 13.6302L117.123 12.9056C117.273 12.8759 117.382 12.7442 117.374 12.5916C117.338 11.8806 117.148 11.3403 116.805 10.9709C116.421 10.5425 115.852 10.3283 115.098 10.3283C114.419 10.3283 113.879 10.4908 113.481 10.8158C113.153 11.0804 112.911 11.4472 112.756 11.916C112.708 12.0606 112.573 12.1625 112.421 12.1555L110.17 12.0516C109.975 12.0426 109.833 11.8635 109.881 11.675C110.154 10.594 110.704 9.75361 111.53 9.15375C112.446 8.47416 113.636 8.13436 115.098 8.13436C116.782 8.13436 118.053 8.5628 118.91 9.41968C119.782 10.2618 120.217 11.4732 120.217 13.054V17.3532C120.217 17.6634 120.269 17.8777 120.373 17.9959C120.491 18.114 120.661 18.1731 120.882 18.1731H120.939C121.116 18.1731 121.259 18.3164 121.259 18.4931V20.0034C121.259 20.1412 121.17 20.262 121.033 20.2796C120.97 20.2877 120.897 20.2947 120.816 20.3006C120.624 20.3153 120.424 20.3227 120.217 20.3227C119.73 20.3227 119.294 20.2489 118.91 20.1011C118.526 19.9386 118.23 19.6653 118.023 19.2812C117.84 18.9275 117.738 18.4635 117.717 17.8891C117.714 17.7953 117.82 17.7409 117.896 17.7961C117.933 17.8232 117.951 17.8699 117.939 17.9144C117.814 18.4021 117.561 18.8429 117.181 19.2369C116.797 19.6357 116.31 19.946 115.719 20.1676C115.128 20.3892 114.463 20.5 113.724 20.5ZM114.3 18.4391C114.936 18.4391 115.482 18.3135 115.94 18.0623C116.398 17.8112 116.753 17.464 117.004 17.0208C117.255 16.5776 117.381 16.0531 117.381 15.4474V15.174C117.381 14.9717 117.195 14.8202 116.997 14.8604L114.323 15.4031C113.687 15.536 113.229 15.7355 112.949 16.0014C112.683 16.2526 112.55 16.585 112.55 16.9986C112.55 17.4566 112.698 17.8112 112.993 18.0623C113.303 18.3135 113.739 18.4391 114.3 18.4391Z" fill="#0F9F4B"/>
<path d="M91.7261 20.2341C91.5494 20.2341 91.4061 20.0908 91.4061 19.9141V8.72029C91.4061 8.54356 91.5494 8.40029 91.7261 8.40029H93.6664C93.8393 8.40029 93.981 8.53767 93.9863 8.71052L94.0592 11.0998C94.062 11.1918 93.9656 11.2534 93.8833 11.2123C93.8339 11.1876 93.8072 11.1326 93.8195 11.0788C93.9549 10.4831 94.1772 9.97439 94.4865 9.55264C94.8263 9.09466 95.2326 8.74747 95.7053 8.51109C96.1928 8.25994 96.7247 8.13436 97.3009 8.13436C98.3055 8.13436 99.1181 8.42245 99.7386 8.99863C100.32 9.52499 100.701 10.2397 100.88 11.1426C100.899 11.2381 100.825 11.3255 100.727 11.3255C100.628 11.3255 100.553 11.2352 100.575 11.1386C100.712 10.5271 100.928 10.0132 101.223 9.59697C101.548 9.1242 101.955 8.76225 102.442 8.51109C102.944 8.25994 103.506 8.13436 104.126 8.13436C104.939 8.13436 105.641 8.31165 106.232 8.66622C106.823 9.00601 107.273 9.50832 107.583 10.1731C107.908 10.838 108.071 11.6579 108.071 12.633V19.9141C108.071 20.0908 107.928 20.2341 107.751 20.2341H105.554C105.378 20.2341 105.234 20.0908 105.234 19.9141V13.3643C105.234 12.3892 105.065 11.6579 104.725 11.1704C104.4 10.6828 103.897 10.4391 103.218 10.4391C102.76 10.4391 102.368 10.5573 102.043 10.7936C101.718 11.03 101.467 11.3772 101.29 11.8352C101.127 12.2784 101.046 12.8176 101.046 13.4529V19.9141C101.046 20.0908 100.903 20.2341 100.726 20.2341H98.7289C98.5522 20.2341 98.4089 20.0908 98.4089 19.9141V13.4529C98.4089 12.4779 98.2612 11.7318 97.9657 11.2147C97.6702 10.6976 97.1605 10.4391 96.4366 10.4391C95.9786 10.4391 95.5871 10.5573 95.2621 10.7936C94.9519 11.03 94.7007 11.3772 94.5086 11.8352C94.3314 12.2784 94.2427 12.8176 94.2427 13.4529V19.9141C94.2427 20.0908 94.0994 20.2341 93.9227 20.2341H91.7261Z" fill="#0F9F4B"/>
<path d="M87.1987 20.2341C86.0168 20.2341 85.1452 19.9608 84.5838 19.4141C84.0371 18.8675 83.7638 18.0106 83.7638 16.8435V5.95021C83.7638 5.77348 83.9071 5.63021 84.0838 5.63021H86.2804C86.4571 5.63021 86.6004 5.77348 86.6004 5.95021V16.5776C86.6004 17.1242 86.7186 17.5083 86.9549 17.7299C87.1913 17.9368 87.5607 18.0402 88.063 18.0402H89.405C89.5818 18.0402 89.725 18.1835 89.725 18.3602V19.9141C89.725 20.0908 89.5818 20.2341 89.405 20.2341H87.1987ZM82.2223 10.5942C82.0456 10.5942 81.9023 10.4509 81.9023 10.2742V8.72029C81.9023 8.54356 82.0456 8.40029 82.2223 8.40029H89.405C89.5818 8.40029 89.725 8.54356 89.725 8.72029V10.2742C89.725 10.4509 89.5818 10.5942 89.405 10.5942H82.2223Z" fill="#0F9F4B"/>
<path d="M78.5517 20.2341C77.3698 20.2341 76.4982 19.9608 75.9368 19.4141C75.3902 18.8675 75.1168 18.0106 75.1168 16.8435V5.95021C75.1168 5.77348 75.2601 5.63021 75.4368 5.63021H77.6334C77.8101 5.63021 77.9534 5.77348 77.9534 5.95021V16.5776C77.9534 17.1242 78.0716 17.5083 78.308 17.7299C78.5444 17.9368 78.9137 18.0402 79.416 18.0402H80.7581C80.9348 18.0402 81.0781 18.1835 81.0781 18.3602V19.9141C81.0781 20.0908 80.9348 20.2341 80.7581 20.2341H78.5517ZM73.5753 10.5942C73.3986 10.5942 73.2553 10.4509 73.2553 10.2742V8.72029C73.2553 8.54356 73.3986 8.40029 73.5753 8.40029H80.7581C80.9348 8.40029 81.0781 8.54356 81.0781 8.72029V10.2742C81.0781 10.4509 80.9348 10.5942 80.7581 10.5942H73.5753Z" fill="#0F9F4B"/>
<path d="M67.0788 20.5C65.8969 20.5 64.8701 20.2489 63.9984 19.7465C63.1268 19.2295 62.4546 18.5056 61.9818 17.5748C61.5091 16.6441 61.2727 15.5582 61.2727 14.3172C61.2727 13.0762 61.5091 11.9977 61.9818 11.0817C62.4546 10.151 63.1194 9.42707 63.9763 8.90998C64.8479 8.3929 65.8599 8.13436 67.0123 8.13436C68.1351 8.13436 69.1176 8.38552 69.9597 8.88782C70.8165 9.39013 71.474 10.114 71.932 11.0596C72.3899 12.0051 72.6189 13.1427 72.6189 14.4723V14.795C72.6189 14.9717 72.4757 15.115 72.2989 15.115H64.5589C64.375 15.115 64.2279 15.2699 64.2482 15.4527C64.3447 16.3212 64.6161 16.9917 65.0622 17.464C65.5792 17.9811 66.2588 18.2396 67.1009 18.2396C67.7362 18.2396 68.2607 18.0993 68.6743 17.8186C69.0357 17.5694 69.3024 17.2414 69.4746 16.8346C69.5319 16.6992 69.6638 16.606 69.8105 16.615L72.0676 16.7528C72.2713 16.7653 72.4119 16.9631 72.3426 17.1551C71.9908 18.1299 71.3886 18.9124 70.5358 19.5028C69.5903 20.1676 68.438 20.5 67.0788 20.5ZM64.278 12.8498C64.2409 13.0392 64.391 13.2092 64.584 13.2092H69.3534C69.5379 13.2092 69.6853 13.0533 69.6627 12.8703C69.5651 12.0802 69.3021 11.4841 68.8738 11.0817C68.3863 10.609 67.7658 10.3726 67.0123 10.3726C66.2588 10.3726 65.6309 10.6164 65.1286 11.1039C64.7069 11.5256 64.4234 12.1076 64.278 12.8498Z" fill="#0F9F4B"/>
<path d="M59.006 20.2341C58.1491 20.2341 57.4621 20.0125 56.945 19.5693C56.428 19.126 56.1694 18.4169 56.1694 17.4418V4.82C56.1694 4.64327 56.3127 4.5 56.4894 4.5H58.686C58.8627 4.5 59.006 4.64327 59.006 4.82V17.1537C59.006 17.4492 59.0798 17.6708 59.2276 17.8186C59.3901 17.9663 59.6117 18.0402 59.8924 18.0402H60.4367C60.6134 18.0402 60.7567 18.1834 60.7567 18.3602V19.9141C60.7567 20.0908 60.6134 20.2341 60.4367 20.2341H59.006Z" fill="#0F9F4B"/>
<path d="M49.4894 20.5C48.6621 20.5 47.9382 20.3227 47.3177 19.9681C47.0544 19.814 46.8162 19.6334 46.6031 19.4262C46.3691 19.1986 45.8669 19.3375 45.8545 19.6637L45.8446 19.9262C45.8381 20.0981 45.6968 20.2341 45.5248 20.2341H43.4493C43.2726 20.2341 43.1293 20.0908 43.1293 19.9141V4.82C43.1293 4.64327 43.2726 4.5 43.4493 4.5H45.6459C45.8226 4.5 45.9659 4.64327 45.9659 4.82V8.92017C45.9659 9.2454 46.4639 9.40858 46.7068 9.19241C46.9031 9.0178 47.1215 8.85718 47.362 8.71053C47.9677 8.32641 48.6768 8.13435 49.4894 8.13435C50.5088 8.13435 51.3878 8.39289 52.1265 8.90997C52.88 9.41228 53.4562 10.1288 53.8551 11.0596C54.2687 11.9755 54.4755 13.0614 54.4755 14.3172C54.4755 15.5729 54.2687 16.6662 53.8551 17.597C53.4562 18.5129 52.88 19.2295 52.1265 19.7465C51.3878 20.2488 50.5088 20.5 49.4894 20.5ZM48.8467 18.1953C49.6593 18.1953 50.3093 17.8555 50.7969 17.1759C51.2844 16.4815 51.5282 15.5286 51.5282 14.3172C51.5282 13.091 51.2844 12.138 50.7969 11.4584C50.3241 10.7789 49.6815 10.4391 48.8689 10.4391C48.2632 10.4391 47.7387 10.5942 47.2955 10.9044C46.8671 11.1999 46.5346 11.6357 46.2983 12.2119C46.0767 12.7881 45.9659 13.4898 45.9659 14.3172C45.9659 15.115 46.0767 15.8093 46.2983 16.4003C46.5346 16.9765 46.8671 17.4197 47.2955 17.7299C47.7239 18.0402 48.241 18.1953 48.8467 18.1953Z" fill="#0F9F4B"/>
<path d="M27.878 20.2341C27.6563 20.2341 27.5018 20.0141 27.577 19.8055L33.0194 4.71146C33.0651 4.58457 33.1855 4.5 33.3204 4.5H36.3944C36.5293 4.5 36.6497 4.58457 36.6954 4.71146L42.1378 19.8055C42.213 20.0141 42.0585 20.2341 41.8368 20.2341H39.5052C39.3694 20.2341 39.2483 20.1483 39.2033 20.0201L38.0461 16.725C38.0011 16.5969 37.8801 16.5111 37.7442 16.5111H31.9706C31.8348 16.5111 31.7137 16.5969 31.6687 16.725L30.5115 20.0201C30.4665 20.1483 30.3454 20.2341 30.2096 20.2341H27.878ZM32.7315 13.6273C32.6602 13.8351 32.8145 14.0512 33.0341 14.0512H36.6821C36.9013 14.0512 37.0556 13.8358 36.985 13.6282L35.17 8.28978C35.0718 8.00092 34.6634 8.00031 34.5643 8.28888L32.7315 13.6273Z" fill="#0F9F4B"/>
</svg>
