<svg width="10" height="24" viewBox="0 0 10 24" fill="none" xmlns="http://www.w3.org/2000/svg">
<path d="M9.53518 6.88147C9.53518 6.33455 9.32219 5.82034 8.93549 5.43364L7.41903 3.91724C7.17919 3.67729 7.04706 3.35839 7.04706 3.01918V2.75015C7.29406 2.61294 7.46175 2.34956 7.46175 2.04752V0.803456C7.46175 0.360415 7.10133 0 6.65829 0H3.3408C2.89775 0 2.53734 0.360415 2.53734 0.803456V2.04752C2.53734 2.34956 2.70503 2.61294 2.95203 2.75015V3.01918C2.95203 3.35839 2.81995 3.67734 2.58005 3.91718L1.06359 5.43364C0.676899 5.82039 0.463905 6.33455 0.463905 6.88147V14.4881C0.463905 14.8083 0.588259 15.0998 0.790989 15.3175C0.588259 15.5352 0.463905 15.8267 0.463905 16.1469C0.463905 16.4671 0.588259 16.7586 0.790989 16.9762C0.588259 17.1939 0.463905 17.4854 0.463905 17.8056C0.463905 18.1258 0.588259 18.4173 0.790989 18.635C0.588259 18.8526 0.463905 19.1442 0.463905 19.4644C0.463905 19.7846 0.588259 20.0761 0.790989 20.2937C0.588259 20.5114 0.463905 20.8029 0.463905 21.1231V21.9525C0.463905 23.0815 1.38244 24 2.51142 24H7.48766C8.61665 24 9.53518 23.0815 9.53518 21.9525V21.1231C9.53518 20.8029 9.41082 20.5114 9.20809 20.2937C9.41082 20.0761 9.53518 19.7846 9.53518 19.4644C9.53518 19.1442 9.41082 18.8526 9.20809 18.635C9.41082 18.4173 9.53518 18.1258 9.53518 17.8056C9.53518 17.4854 9.41082 17.1939 9.20809 16.9762C9.41082 16.7586 9.53518 16.4671 9.53518 16.1469C9.53518 15.8267 9.41082 15.5352 9.20809 15.3175C9.41082 15.0998 9.53518 14.8083 9.53518 14.4881V6.88147ZM3.31488 0.803456C3.31488 0.789201 3.32649 0.777538 3.3408 0.777538H6.65829C6.6726 0.777538 6.68421 0.789201 6.68421 0.803456V2.04752C6.68421 2.06177 6.6726 2.07343 6.65829 2.07343H3.3408C3.32649 2.07343 3.31488 2.06177 3.31488 2.04752V0.803456ZM1.24144 6.88147C1.24144 6.54226 1.37352 6.22336 1.61342 5.98352L3.12987 4.46701C3.51657 4.08026 3.72956 3.5661 3.72956 3.01918V2.85097H6.26952V3.01918C6.26952 3.56605 6.48246 4.08026 6.86921 4.46706L8.38567 5.98352C8.62551 6.22336 8.75764 6.54226 8.75764 6.88147V14.4881C8.75764 14.7311 8.55999 14.9287 8.31704 14.9287H1.68205C1.43909 14.9287 1.24144 14.7311 1.24144 14.4881V6.88147ZM8.75764 16.1469C8.75764 16.3898 8.55999 16.5875 8.31704 16.5875H1.68205C1.43909 16.5875 1.24144 16.3898 1.24144 16.1469C1.24144 15.9039 1.43909 15.7063 1.68205 15.7063H8.31704C8.55999 15.7063 8.75764 15.9039 8.75764 16.1469ZM8.75764 17.8056C8.75764 18.0486 8.55999 18.2462 8.31704 18.2462H1.68205C1.43909 18.2462 1.24144 18.0486 1.24144 17.8056C1.24144 17.5627 1.43909 17.365 1.68205 17.365H8.31704C8.55999 17.365 8.75764 17.5627 8.75764 17.8056ZM8.75764 19.4644C8.75764 19.7073 8.55999 19.905 8.31704 19.905H1.68205C1.43909 19.905 1.24144 19.7073 1.24144 19.4644C1.24144 19.2214 1.43909 19.0238 1.68205 19.0238H8.31704C8.55999 19.0238 8.75764 19.2214 8.75764 19.4644ZM8.75764 21.9525C8.75764 22.6528 8.18791 23.2225 7.48766 23.2225H2.51142C1.81117 23.2225 1.24144 22.6528 1.24144 21.9525V21.1231C1.24144 20.8802 1.43909 20.6825 1.68205 20.6825H8.31704C8.55999 20.6825 8.75764 20.8802 8.75764 21.1231V21.9525Z" fill="#0F9F4B"/>
</svg>
